<svg width="25" height="33" viewBox="0 0 25 33" fill="none" xmlns="http://www.w3.org/2000/svg">
<path d="M14.6292 18.0208C13.4125 16.8042 11.5875 16.8042 10.3709 18.0208L1.24587 27.1458C0.0292074 28.3625 0.0292074 30.1875 1.24587 31.4042C2.46254 32.6208 4.28754 32.6208 5.50421 31.4042L12.5 24.4083L19.4959 31.4042C20.1042 32.0125 20.7125 32.3167 21.625 32.3167C22.5375 32.3167 23.1459 32.0125 23.7542 31.4042C24.9709 30.1875 24.9709 28.3625 23.7542 27.1458L14.6292 18.0208ZM5.50421 14.9792L12.5 7.98332L19.4959 14.9792C20.1042 15.5875 20.7125 15.8917 21.625 15.8917C22.5375 15.8917 23.1459 15.5875 23.7542 14.9792C24.9709 13.7625 24.9709 11.9375 23.7542 10.7208L14.6292 1.59582C13.4125 0.379152 11.5875 0.379152 10.3709 1.59582L1.24587 10.7208C0.0292074 11.9375 0.0292074 13.7625 1.24587 14.9792C2.46254 15.8917 4.28754 15.8917 5.50421 14.9792Z" fill="white"/>
</svg>
