<svg width="130" height="130" viewBox="0 0 130 130" fill="none" xmlns="http://www.w3.org/2000/svg">
<circle opacity="0.5" cx="65" cy="65" r="65" fill="black"/>
<path d="M50.2893 56.62H48.8489C48.7935 56.3123 48.6904 56.0414 48.5396 55.8075C48.3888 55.5736 48.2042 55.3751 47.9857 55.212C47.7671 55.0489 47.5225 54.9258 47.2516 54.8427C46.9839 54.7596 46.6992 54.718 46.3976 54.718C45.8529 54.718 45.365 54.855 44.9342 55.1289C44.5064 55.4028 44.1678 55.8045 43.9185 56.3338C43.6723 56.8632 43.5492 57.5095 43.5492 58.2727C43.5492 59.0421 43.6723 59.6915 43.9185 60.2209C44.1678 60.7502 44.5079 61.1503 44.9388 61.4212C45.3697 61.692 45.8544 61.8274 46.393 61.8274C46.6915 61.8274 46.9747 61.7874 47.2424 61.7074C47.5132 61.6243 47.7579 61.5027 47.9764 61.3427C48.1949 61.1826 48.3796 60.9872 48.5304 60.7564C48.6843 60.5225 48.7905 60.2547 48.8489 59.9531L50.2893 59.9577C50.2123 60.4225 50.0631 60.8503 49.8415 61.2411C49.623 61.6289 49.3414 61.9644 48.9967 62.2475C48.6551 62.5276 48.2642 62.7446 47.8241 62.8984C47.384 63.0523 46.9039 63.1293 46.3837 63.1293C45.5651 63.1293 44.8357 62.9354 44.1955 62.5476C43.5554 62.1567 43.0506 61.5981 42.6813 60.8718C42.3151 60.1455 42.132 59.2791 42.132 58.2727C42.132 57.2633 42.3166 56.3969 42.6859 55.6737C43.0553 54.9473 43.56 54.3903 44.2002 54.0025C44.8403 53.6116 45.5682 53.4162 46.3837 53.4162C46.8854 53.4162 47.3532 53.4885 47.7872 53.6332C48.2242 53.7747 48.6166 53.984 48.9644 54.261C49.3121 54.5349 49.5999 54.8704 49.8276 55.2674C50.0554 55.6613 50.2093 56.1122 50.2893 56.62ZM53.2658 58.7898V63H51.8854V53.5455H53.2473V57.0632H53.335C53.5012 56.6816 53.7551 56.3784 54.0967 56.1538C54.4383 55.9291 54.8846 55.8168 55.4355 55.8168C55.9218 55.8168 56.3465 55.9168 56.7097 56.1168C57.0759 56.3169 57.359 56.6154 57.5591 57.0124C57.7622 57.4064 57.8638 57.8988 57.8638 58.4897V63H56.4834V58.6559C56.4834 58.1358 56.3496 57.7326 56.0818 57.4464C55.8141 57.1571 55.4417 57.0124 54.9646 57.0124C54.6384 57.0124 54.346 57.0817 54.0875 57.2202C53.832 57.3587 53.6305 57.5618 53.4827 57.8295C53.3381 58.0942 53.2658 58.4143 53.2658 58.7898ZM61.7693 63.157C61.32 63.157 60.9137 63.0739 60.5506 62.9077C60.1874 62.7384 59.8996 62.4937 59.6873 62.1737C59.478 61.8536 59.3734 61.4612 59.3734 60.9964C59.3734 60.5964 59.4503 60.267 59.6042 60.0085C59.7581 59.75 59.9658 59.5453 60.2274 59.3945C60.489 59.2437 60.7814 59.1299 61.1045 59.0529C61.4277 58.976 61.757 58.9175 62.0925 58.8775C62.5172 58.8282 62.8619 58.7882 63.1266 58.7575C63.3912 58.7236 63.5836 58.6697 63.7036 58.5959C63.8236 58.522 63.8837 58.402 63.8837 58.2358V58.2035C63.8837 57.8003 63.7698 57.4879 63.542 57.2663C63.3174 57.0447 62.9819 56.9339 62.5356 56.9339C62.0709 56.9339 61.7047 57.037 61.4369 57.2433C61.1722 57.4464 60.9891 57.6726 60.8876 57.9219L59.5903 57.6264C59.7442 57.1955 59.9689 56.8478 60.2643 56.5831C60.5629 56.3153 60.906 56.1214 61.2938 56.0014C61.6816 55.8783 62.0894 55.8168 62.5172 55.8168C62.8003 55.8168 63.1004 55.8506 63.4174 55.9183C63.7375 55.983 64.036 56.103 64.313 56.2784C64.5931 56.4538 64.8223 56.7047 65.0008 57.0309C65.1793 57.354 65.2686 57.7741 65.2686 58.2912V63H63.9206V62.0305H63.8652C63.7759 62.209 63.6421 62.3845 63.4636 62.5568C63.2851 62.7292 63.0558 62.8723 62.7757 62.9862C62.4956 63.1 62.1602 63.157 61.7693 63.157ZM62.0694 62.049C62.451 62.049 62.7772 61.9736 63.0481 61.8228C63.322 61.672 63.5297 61.475 63.6713 61.2319C63.8159 60.9857 63.8883 60.7225 63.8883 60.4425V59.5284C63.839 59.5777 63.7436 59.6238 63.6021 59.6669C63.4636 59.7069 63.3051 59.7423 63.1266 59.7731C62.9481 59.8008 62.7742 59.8269 62.6049 59.8516C62.4356 59.8731 62.294 59.8916 62.1802 59.907C61.9124 59.9408 61.6677 59.9978 61.4462 60.0778C61.2276 60.1578 61.0522 60.2732 60.9199 60.424C60.7906 60.5717 60.726 60.7687 60.726 61.0149C60.726 61.3565 60.8522 61.6151 61.1045 61.7905C61.3569 61.9628 61.6785 62.049 62.0694 62.049ZM68.4874 58.7898V63H67.1071V55.9091H68.432V57.0632H68.5198C68.6829 56.6877 68.9383 56.3861 69.2861 56.1584C69.6369 55.9306 70.0786 55.8168 70.611 55.8168C71.0942 55.8168 71.5174 55.9183 71.8805 56.1214C72.2437 56.3215 72.5253 56.62 72.7254 57.017C72.9254 57.4141 73.0254 57.9049 73.0254 58.4897V63H71.6451V58.6559C71.6451 58.1419 71.5112 57.7403 71.2435 57.451C70.9757 57.1586 70.6079 57.0124 70.1401 57.0124C69.8201 57.0124 69.5354 57.0817 69.2861 57.2202C69.0399 57.3587 68.8444 57.5618 68.6998 57.8295C68.5582 58.0942 68.4874 58.4143 68.4874 58.7898ZM77.8497 65.8068C77.2864 65.8068 76.8017 65.733 76.3955 65.5852C75.9923 65.4375 75.663 65.2421 75.4075 64.9989C75.1521 64.7558 74.9613 64.4896 74.8351 64.2003L76.0215 63.7109C76.1046 63.8464 76.2154 63.9895 76.3539 64.1403C76.4955 64.2942 76.6863 64.425 76.9264 64.5327C77.1695 64.6404 77.4819 64.6942 77.8635 64.6942C78.3867 64.6942 78.8191 64.5665 79.1607 64.3111C79.5024 64.0587 79.6732 63.6555 79.6732 63.1016V61.7074H79.5854C79.5024 61.8582 79.3823 62.0259 79.2254 62.2106C79.0715 62.3952 78.8591 62.5553 78.5883 62.6907C78.3175 62.8261 77.9651 62.8938 77.5311 62.8938C76.971 62.8938 76.4662 62.763 76.0169 62.5014C75.5707 62.2367 75.2167 61.8474 74.9551 61.3335C74.6966 60.8164 74.5673 60.1809 74.5673 59.4268C74.5673 58.6728 74.6951 58.0265 74.9505 57.4879C75.209 56.9493 75.563 56.5369 76.0123 56.2507C76.4616 55.9614 76.971 55.8168 77.5403 55.8168C77.9805 55.8168 78.3359 55.8906 78.6068 56.0384C78.8776 56.183 79.0884 56.3523 79.2392 56.5462C79.3931 56.7401 79.5116 56.9109 79.5947 57.0586H79.6962V55.9091H81.0489V63.157C81.0489 63.7663 80.9073 64.2665 80.6242 64.6573C80.341 65.0482 79.9578 65.3375 79.4747 65.5252C78.9945 65.7129 78.4529 65.8068 77.8497 65.8068ZM77.8358 61.7489C78.2328 61.7489 78.5683 61.6566 78.8422 61.4719C79.1192 61.2842 79.3285 61.0165 79.47 60.6687C79.6147 60.3178 79.687 59.8977 79.687 59.4084C79.687 58.9313 79.6162 58.5112 79.4747 58.1481C79.3331 57.7849 79.1253 57.5018 78.8514 57.2987C78.5775 57.0924 78.239 56.9893 77.8358 56.9893C77.4203 56.9893 77.0741 57.0971 76.7971 57.3125C76.5201 57.5249 76.3108 57.8142 76.1693 58.1804C76.0308 58.5466 75.9615 58.956 75.9615 59.4084C75.9615 59.8731 76.0323 60.2809 76.1739 60.6317C76.3154 60.9826 76.5247 61.2565 76.8017 61.4535C77.0818 61.6504 77.4265 61.7489 77.8358 61.7489ZM85.9562 63.1431C85.2576 63.1431 84.6559 62.9938 84.1511 62.6953C83.6495 62.3937 83.2617 61.9705 82.9878 61.4258C82.717 60.878 82.5815 60.2363 82.5815 59.5007C82.5815 58.7744 82.717 58.1342 82.9878 57.5803C83.2617 57.0263 83.6433 56.5939 84.1327 56.283C84.6251 55.9722 85.2006 55.8168 85.8592 55.8168C86.2593 55.8168 86.6471 55.8829 87.0226 56.0153C87.3981 56.1476 87.7351 56.3554 88.0336 56.6385C88.3321 56.9216 88.5676 57.2894 88.7399 57.7418C88.9123 58.1912 88.9984 58.7375 88.9984 59.3807V59.87H83.3617V58.8359H87.6458C87.6458 58.4728 87.572 58.1512 87.4242 57.8711C87.2765 57.5879 87.0688 57.3648 86.801 57.2017C86.5363 57.0386 86.2255 56.957 85.8685 56.957C85.4807 56.957 85.1421 57.0524 84.8528 57.2433C84.5666 57.431 84.345 57.6772 84.1881 57.9819C84.0342 58.2835 83.9573 58.6113 83.9573 58.9652V59.7731C83.9573 60.247 84.0403 60.6502 84.2065 60.9826C84.3758 61.315 84.6113 61.5689 84.9129 61.7443C85.2145 61.9167 85.5669 62.0028 85.97 62.0028C86.2316 62.0028 86.4702 61.9659 86.6856 61.892C86.901 61.8151 87.0872 61.7012 87.2442 61.5504C87.4011 61.3996 87.5212 61.2134 87.6043 60.9918L88.9107 61.2273C88.8061 61.612 88.6184 61.949 88.3475 62.2383C88.0798 62.5245 87.7428 62.7476 87.3365 62.9077C86.9333 63.0646 86.4732 63.1431 85.9562 63.1431ZM48.2575 77V67.5455H51.6275C52.363 67.5455 52.9724 67.6793 53.4556 67.9471C53.9388 68.2148 54.3004 68.5811 54.5405 69.0458C54.7805 69.5075 54.9006 70.0276 54.9006 70.6062C54.9006 71.1879 54.779 71.7111 54.5359 72.1758C54.2958 72.6374 53.9326 73.0037 53.4464 73.2745C52.9632 73.5423 52.3554 73.6761 51.6229 73.6761H49.3054V72.4666H51.4936C51.9583 72.4666 52.3353 72.3866 52.6246 72.2266C52.9139 72.0634 53.1263 71.8419 53.2617 71.5618C53.3971 71.2817 53.4648 70.9632 53.4648 70.6062C53.4648 70.2492 53.3971 69.9322 53.2617 69.6552C53.1263 69.3782 52.9124 69.1612 52.62 69.0043C52.3307 68.8473 51.9491 68.7688 51.4751 68.7688H49.6839V77H48.2575ZM57.8424 72.7898V77H56.4621V67.5455H57.824V71.0632H57.9117C58.0779 70.6816 58.3318 70.3784 58.6734 70.1538C59.015 69.9291 59.4613 69.8168 60.0122 69.8168C60.4984 69.8168 60.9231 69.9168 61.2863 70.1168C61.6526 70.3169 61.9357 70.6154 62.1357 71.0124C62.3389 71.4064 62.4404 71.8988 62.4404 72.4897V77H61.0601V72.6559C61.0601 72.1358 60.9262 71.7326 60.6585 71.4464C60.3907 71.1571 60.0183 71.0124 59.5413 71.0124C59.2151 71.0124 58.9227 71.0817 58.6642 71.2202C58.4087 71.3587 58.2071 71.5618 58.0594 71.8295C57.9147 72.0942 57.8424 72.4143 57.8424 72.7898ZM67.2693 77.1431C66.6045 77.1431 66.0244 76.9908 65.5289 76.6861C65.0334 76.3814 64.6486 75.9551 64.3747 75.4073C64.1008 74.8595 63.9639 74.2193 63.9639 73.4869C63.9639 72.7513 64.1008 72.1081 64.3747 71.5572C64.6486 71.0063 65.0334 70.5785 65.5289 70.2738C66.0244 69.9691 66.6045 69.8168 67.2693 69.8168C67.934 69.8168 68.5142 69.9691 69.0097 70.2738C69.5052 70.5785 69.8899 71.0063 70.1638 71.5572C70.4377 72.1081 70.5747 72.7513 70.5747 73.4869C70.5747 74.2193 70.4377 74.8595 70.1638 75.4073C69.8899 75.9551 69.5052 76.3814 69.0097 76.6861C68.5142 76.9908 67.934 77.1431 67.2693 77.1431ZM67.2739 75.9844C67.7048 75.9844 68.0618 75.8705 68.3449 75.6428C68.628 75.415 68.8373 75.1119 68.9727 74.7333C69.1112 74.3548 69.1805 73.9377 69.1805 73.4822C69.1805 73.0298 69.1112 72.6143 68.9727 72.2358C68.8373 71.8542 68.628 71.5479 68.3449 71.3171C68.0618 71.0863 67.7048 70.9709 67.2739 70.9709C66.8399 70.9709 66.4798 71.0863 66.1936 71.3171C65.9105 71.5479 65.6997 71.8542 65.5612 72.2358C65.4258 72.6143 65.358 73.0298 65.358 73.4822C65.358 73.9377 65.4258 74.3548 65.5612 74.7333C65.6997 75.1119 65.9105 75.415 66.1936 75.6428C66.4798 75.8705 66.8399 75.9844 67.2739 75.9844ZM75.4254 69.9091V71.017H71.5522V69.9091H75.4254ZM72.5909 68.2102H73.9712V74.918C73.9712 75.1857 74.0112 75.3873 74.0913 75.5227C74.1713 75.6551 74.2744 75.7459 74.4006 75.7951C74.5298 75.8413 74.6699 75.8643 74.8207 75.8643C74.9315 75.8643 75.0284 75.8567 75.1115 75.8413C75.1946 75.8259 75.2592 75.8136 75.3054 75.8043L75.5547 76.9446C75.4747 76.9754 75.3608 77.0062 75.2131 77.0369C75.0653 77.0708 74.8807 77.0893 74.6591 77.0923C74.2959 77.0985 73.9574 77.0339 73.6435 76.8984C73.3295 76.763 73.0756 76.5537 72.8817 76.2706C72.6879 75.9875 72.5909 75.632 72.5909 75.2042V68.2102ZM79.863 77.1431C79.1982 77.1431 78.6181 76.9908 78.1226 76.6861C77.6271 76.3814 77.2424 75.9551 76.9685 75.4073C76.6946 74.8595 76.5576 74.2193 76.5576 73.4869C76.5576 72.7513 76.6946 72.1081 76.9685 71.5572C77.2424 71.0063 77.6271 70.5785 78.1226 70.2738C78.6181 69.9691 79.1982 69.8168 79.863 69.8168C80.5278 69.8168 81.1079 69.9691 81.6034 70.2738C82.0989 70.5785 82.4836 71.0063 82.7575 71.5572C83.0315 72.1081 83.1684 72.7513 83.1684 73.4869C83.1684 74.2193 83.0315 74.8595 82.7575 75.4073C82.4836 75.9551 82.0989 76.3814 81.6034 76.6861C81.1079 76.9908 80.5278 77.1431 79.863 77.1431ZM79.8676 75.9844C80.2985 75.9844 80.6555 75.8705 80.9387 75.6428C81.2218 75.415 81.4311 75.1119 81.5665 74.7333C81.705 74.3548 81.7742 73.9377 81.7742 73.4822C81.7742 73.0298 81.705 72.6143 81.5665 72.2358C81.4311 71.8542 81.2218 71.5479 80.9387 71.3171C80.6555 71.0863 80.2985 70.9709 79.8676 70.9709C79.4337 70.9709 79.0736 71.0863 78.7874 71.3171C78.5042 71.5479 78.2934 71.8542 78.1549 72.2358C78.0195 72.6143 77.9518 73.0298 77.9518 73.4822C77.9518 73.9377 78.0195 74.3548 78.1549 74.7333C78.2934 75.1119 78.5042 75.415 78.7874 75.6428C79.0736 75.8705 79.4337 75.9844 79.8676 75.9844Z" fill="white"/>
</svg>
